HIERARCHY
ROOT hip
{
	OFFSET 0.000000 0.000000 0.000000
	CHANNELS 6 Xposition Yposition Zposition Xrotation Zrotation Yrotation 
	JOINT abdomen
	{
		OFFSET 0.000000 3.422050 0.000000
		CHANNELS 3 Xrotation Zrotation Yrotation 
		JOINT chest
		{
			OFFSET 0.000000 8.486693 -0.6844110
			CHANNELS 3 Xrotation Zrotation Yrotation 
			JOINT neck
			{
				OFFSET 0.000000 10.26616 -0.2737640
				CHANNELS 3 Xrotation Zrotation Yrotation 
				JOINT head
				{
					OFFSET 0.000000 3.148285 0.000000
					CHANNELS 3 Xrotation Zrotation Yrotation 
					End Site
					{
						OFFSET 0.000000 3.148289 0.000000
					}
				}
			}
			JOINT lCollar
			{
				OFFSET 3.422053 6.707223 -0.8212930
				CHANNELS 3 Yrotation Zrotation Xrotation 
				JOINT lShldr
				{
					OFFSET 3.285171 0.000000 0.000000
					CHANNELS 3 Zrotation Yrotation Xrotation 
					JOINT lForeArm
					{
						OFFSET 10.12928 0.000000 0.000000
						CHANNELS 3 Yrotation Zrotation Xrotation 
						JOINT lHand
						{
							OFFSET 8.486692 0.000000 0.000000
							CHANNELS 3 Zrotation Yrotation Xrotation 
							End Site
							{
								OFFSET 4.106464 0.000000 0.000000
							}
						}
					}
				}
			}
			JOINT rCollar
			{
				OFFSET -3.558935 6.707223 -0.8212930
				CHANNELS 3 Yrotation Zrotation Xrotation 
				JOINT rShldr
				{
					OFFSET -3.148289 0.000000 0.000000
					CHANNELS 3 Zrotation Yrotation Xrotation 
					JOINT rForeArm
					{
						OFFSET -10.26616 0.000000 0.000000
						CHANNELS 3 Yrotation Zrotation Xrotation 
						JOINT rHand
						{
							OFFSET -8.349810 0.000000 0.000000
							CHANNELS 3 Zrotation Yrotation Xrotation 
							End Site
							{
								OFFSET -4.106464 0.000000 0.000000
							}
						}
					}
				}
			}
		}
	}
	JOINT lThigh
	{
		OFFSET 5.338403 -1.642589 1.368821
		CHANNELS 3 Xrotation Zrotation Yrotation 
		JOINT lShin
		{
			OFFSET -2.053232 -20.12167 0.000000
			CHANNELS 3 Xrotation Zrotation Yrotation 
			JOINT lFoot
			{
				OFFSET 0.000000 -19.30038 -1.231939
				CHANNELS 3 Xrotation Yrotation Zrotation 
				End Site
				{
					OFFSET 0.000000 -2.463878 4.653993
				}
			}
		}
	}
	JOINT rThigh
	{
		OFFSET -5.338403 -1.642589 1.368821
		CHANNELS 3 Xrotation Zrotation Yrotation 
		JOINT rShin
		{
			OFFSET 2.053232 -20.12167 0.000000
			CHANNELS 3 Xrotation Zrotation Yrotation 
			JOINT rFoot
			{
				OFFSET 0.000000 -19.30038 -1.231939
				CHANNELS 3 Xrotation Yrotation Zrotation 
				End Site
				{
					OFFSET 0.000000 -2.463878 4.653993
				}
			}
		}
	}
}
MOTION
Frames:	19
Frame Time:	0.03333333
0.000000 43.52852 0.000000 0.000000 0.000000 0.000000 0.000000 0.000000 0.000000 0.000000 0.000000 0.000000 0.000000 0.000000 0.000000 0.000000 0.000000 0.000000 0.000000 0.000000 0.000000 0.000000 0.000000 0.000000 0.000000 0.000000 0.000000 0.000000 0.000000 0.000000 0.000000 0.000000 0.000000 0.000000 0.000000 0.000000 0.000000 0.000000 0.000000 0.000000 0.000000 0.000000 0.000000 0.000000 0.000000 0.000000 0.000000 0.000000 0.000000 0.000000 0.000000 0.000000 0.000000 0.000000 0.000000 0.000000 0.000000 0.000000 0.000000 0.000000 
0.000000 39.00000 0.000000 1.000000 0.000000 0.000000 1.000000 0.000000 0.000000 1.000000 0.000000 0.000000 1.000000 0.000000 0.000000 1.000000 0.000000 0.000000 0.000000 0.000000 1.000000 -77.00000 43.00000 0.000000 -129.0000 0.000000 0.000000 0.000000 -52.00000 -90.00000 0.000000 0.000000 1.000000 77.00000 -43.00000 0.000000 129.0000 0.000000 0.000000 0.000000 52.00000 -90.00000 -15.00000 0.000000 0.000000 30.00000 0.000000 0.000000 -16.00000 0.000000 0.000000 -15.00000 0.000000 0.000000 30.00000 0.000000 0.000000 -16.00000 0.000000 0.000000 
0.000000 39.00000 0.000000 1.000000 0.000000 0.000000 1.000000 0.000000 0.000000 1.000000 0.000000 0.000000 1.000000 0.000000 0.000000 1.000000 0.000000 0.000000 0.000000 0.000000 1.000000 -71.07692 33.92308 0.000000 -120.5385 0.000000 0.000000 3.461539 -48.00000 -83.07692 0.000000 0.000000 1.000000 71.07692 -33.92308 0.000000 120.5385 0.000000 0.000000 -3.461539 48.00000 -83.07692 -15.00000 0.000000 0.000000 30.00000 0.000000 0.000000 -16.00000 0.000000 0.000000 -11.46154 0.000000 0.000000 27.76923 0.000000 0.000000 -13.76923 0.000000 0.000000 
0.000000 39.00000 0.000000 1.000000 0.000000 0.000000 1.000000 0.000000 0.000000 1.000000 0.000000 0.000000 1.000000 0.000000 0.000000 1.000000 0.000000 0.000000 0.000000 0.000000 1.000000 -65.15385 24.84615 0.000000 -112.0769 0.000000 0.000000 6.923077 -44.00000 -76.15385 0.000000 0.000000 1.000000 65.15385 -24.84615 0.000000 112.0769 0.000000 0.000000 -6.923077 44.00000 -76.15385 -15.00000 0.000000 0.000000 30.00000 0.000000 0.000000 -16.00000 0.000000 0.000000 -7.923077 0.000000 0.000000 25.53846 0.000000 0.000000 -11.53846 0.000000 0.000000 
0.000000 39.00000 0.000000 1.000000 0.000000 0.000000 1.000000 0.000000 0.000000 1.000000 0.000000 0.000000 1.000000 0.000000 0.000000 1.000000 0.000000 0.000000 0.000000 0.000000 1.000000 -59.23077 15.76923 0.000000 -103.6154 0.000000 0.000000 10.38461 -40.00000 -69.23077 0.000000 0.000000 1.000000 59.23077 -15.76923 0.000000 103.6154 0.000000 0.000000 -10.38461 40.00000 -69.23077 -15.00000 0.000000 0.000000 30.00000 0.000000 0.000000 -16.00000 0.000000 0.000000 -4.384615 0.000000 0.000000 23.30769 0.000000 0.000000 -9.307693 0.000000 0.000000 
0.000000 39.00000 0.000000 1.000000 0.000000 0.000000 1.000000 0.000000 0.000000 1.000000 0.000000 0.000000 1.000000 0.000000 0.000000 1.000000 0.000000 0.000000 0.000000 0.000000 1.000000 -53.30769 6.692307 0.000000 -95.15385 0.000000 0.000000 13.84615 -36.00000 -62.30769 0.000000 0.000000 1.000000 53.30769 -6.692307 0.000000 95.15385 0.000000 0.000000 -13.84615 36.00000 -62.30769 -15.00000 0.000000 0.000000 30.00000 0.000000 0.000000 -16.00000 0.000000 0.000000 -0.8461539 0.000000 0.000000 21.07692 0.000000 0.000000 -7.076923 0.000000 0.000000 
0.000000 39.00000 0.000000 1.000000 0.000000 0.000000 1.000000 0.000000 0.000000 1.000000 0.000000 0.000000 1.000000 0.000000 0.000000 1.000000 0.000000 0.000000 0.000000 0.000000 1.000000 -47.38462 -2.384615 0.000000 -86.69231 0.000000 0.000000 17.30769 -32.00000 -55.38462 0.000000 0.000000 1.000000 47.38462 2.384615 0.000000 86.69231 0.000000 0.000000 -17.30769 32.00000 -55.38462 -15.00000 0.000000 0.000000 30.00000 0.000000 0.000000 -16.00000 0.000000 0.000000 2.692308 0.000000 0.000000 18.84615 0.000000 0.000000 -4.846154 0.000000 0.000000 
0.000000 39.00000 0.000000 1.000000 0.000000 0.000000 1.000000 0.000000 0.000000 1.000000 0.000000 0.000000 1.000000 0.000000 0.000000 1.000000 0.000000 0.000000 0.000000 0.000000 1.000000 -41.46154 -11.46154 0.000000 -78.23077 0.000000 0.000000 20.76923 -28.00000 -48.46154 0.000000 0.000000 1.000000 41.46154 11.46154 0.000000 78.23077 0.000000 0.000000 -20.76923 28.00000 -48.46154 -15.00000 0.000000 0.000000 30.00000 0.000000 0.000000 -16.00000 0.000000 0.000000 6.230769 0.000000 0.000000 16.61539 0.000000 0.000000 -2.615385 0.000000 0.000000 
0.000000 39.00000 0.000000 1.000000 0.000000 0.000000 1.000000 0.000000 0.000000 1.000000 0.000000 0.000000 1.000000 0.000000 0.000000 1.000000 0.000000 0.000000 0.000000 0.000000 1.000000 -35.53846 -20.53846 0.000000 -69.76923 0.000000 0.000000 24.23077 -24.00000 -41.53846 0.000000 0.000000 1.000000 35.53846 20.53846 0.000000 69.76923 0.000000 0.000000 -24.23077 24.00000 -41.53846 -15.00000 0.000000 0.000000 30.00000 0.000000 0.000000 -16.00000 0.000000 0.000000 9.769231 0.000000 0.000000 14.38461 0.000000 0.000000 -0.3846154 0.000000 0.000000 
0.000000 39.00000 0.000000 1.000000 0.000000 0.000000 1.000000 0.000000 0.000000 1.000000 0.000000 0.000000 1.000000 0.000000 0.000000 1.000000 0.000000 0.000000 0.000000 0.000000 1.000000 -29.61539 -29.61539 0.000000 -61.30769 0.000000 0.000000 27.69231 -20.00000 -34.61538 0.000000 0.000000 1.000000 29.61539 29.61539 0.000000 61.30769 0.000000 0.000000 -27.69231 20.00000 -34.61538 -15.00000 0.000000 0.000000 30.00000 0.000000 0.000000 -16.00000 0.000000 0.000000 13.30769 0.000000 0.000000 12.15385 0.000000 0.000000 1.846154 0.000000 0.000000 
0.000000 39.00000 0.000000 1.000000 0.000000 0.000000 1.000000 0.000000 0.000000 1.000000 0.000000 0.000000 1.000000 0.000000 0.000000 1.000000 0.000000 0.000000 0.000000 0.000000 1.000000 -23.69231 -38.69231 0.000000 -52.84615 0.000000 0.000000 31.15385 -16.00000 -27.69231 0.000000 0.000000 1.000000 23.69231 38.69231 0.000000 52.84615 0.000000 0.000000 -31.15385 16.00000 -27.69231 -15.00000 0.000000 0.000000 30.00000 0.000000 0.000000 -16.00000 0.000000 0.000000 16.84615 0.000000 0.000000 9.923077 0.000000 0.000000 4.076923 0.000000 0.000000 
0.000000 39.00000 0.000000 1.000000 0.000000 0.000000 1.000000 0.000000 0.000000 1.000000 0.000000 0.000000 1.000000 0.000000 0.000000 1.000000 0.000000 0.000000 0.000000 0.000000 1.000000 -17.76923 -47.76923 0.000000 -44.38462 0.000000 0.000000 34.61538 -12.00000 -20.76923 0.000000 0.000000 1.000000 17.76923 47.76923 0.000000 44.38462 0.000000 0.000000 -34.61538 12.00000 -20.76923 -15.00000 0.000000 0.000000 30.00000 0.000000 0.000000 -16.00000 0.000000 0.000000 20.38461 0.000000 0.000000 7.692307 0.000000 0.000000 6.307693 0.000000 0.000000 
0.000000 39.00000 0.000000 1.000000 0.000000 0.000000 1.000000 0.000000 0.000000 1.000000 0.000000 0.000000 1.000000 0.000000 0.000000 1.000000 0.000000 0.000000 0.000000 0.000000 1.000000 -11.84615 -56.84615 0.000000 -35.92308 0.000000 0.000000 38.07692 -8.000000 -13.84615 0.000000 0.000000 1.000000 11.84615 56.84615 0.000000 35.92308 0.000000 0.000000 -38.07692 8.000000 -13.84615 -15.00000 0.000000 0.000000 30.00000 0.000000 0.000000 -16.00000 0.000000 0.000000 23.92308 0.000000 0.000000 5.461538 0.000000 0.000000 8.538462 0.000000 0.000000 
0.000000 39.00000 0.000000 1.000000 0.000000 0.000000 1.000000 0.000000 0.000000 1.000000 0.000000 0.000000 1.000000 0.000000 0.000000 1.000000 0.000000 0.000000 0.000000 0.000000 1.000000 -5.923077 -65.92308 0.000000 -27.46154 0.000000 0.000000 41.53846 -4.000000 -6.923077 0.000000 0.000000 1.000000 5.923077 65.92308 0.000000 27.46154 0.000000 0.000000 -41.53846 4.000000 -6.923077 -15.00000 0.000000 0.000000 30.00000 0.000000 0.000000 -16.00000 0.000000 0.000000 27.46154 0.000000 0.000000 3.230769 0.000000 0.000000 10.76923 0.000000 0.000000 
0.000000 39.00000 0.000000 1.000000 0.000000 0.000000 1.000000 0.000000 0.000000 1.000000 0.000000 0.000000 1.000000 0.000000 0.000000 1.000000 0.000000 0.000000 0.000000 0.000000 1.000000 0.000000 -75.00000 0.000000 -19.00000 0.000000 0.000000 45.00000 0.000000 0.000000 0.000000 0.000000 1.000000 0.000000 75.00000 0.000000 19.00000 0.000000 0.000000 -45.00000 0.000000 0.000000 -15.00000 0.000000 0.000000 30.00000 0.000000 0.000000 -16.00000 0.000000 0.000000 31.00000 0.000000 0.000000 1.000000 0.000000 0.000000 13.00000 0.000000 0.000000 
0.000000 39.00000 0.000000 1.000000 0.000000 0.000000 1.000000 0.000000 0.000000 1.000000 0.000000 0.000000 1.000000 0.000000 0.000000 1.000000 0.000000 0.000000 0.000000 0.000000 1.000000 -5.133333 -67.13333 0.000000 -26.33333 0.000000 0.000000 42.00000 -3.466667 -6.000000 0.000000 0.000000 1.000000 5.133333 67.13333 0.000000 26.33333 0.000000 0.000000 -42.00000 3.466667 -6.000000 -15.00000 0.000000 0.000000 30.00000 0.000000 0.000000 -16.00000 0.000000 0.000000 27.93333 0.000000 0.000000 2.933333 0.000000 0.000000 11.06667 0.000000 0.000000 
0.000000 39.00000 0.000000 1.000000 0.000000 0.000000 1.000000 0.000000 0.000000 1.000000 0.000000 0.000000 1.000000 0.000000 0.000000 1.000000 0.000000 0.000000 0.000000 0.000000 1.000000 -10.26667 -59.26667 0.000000 -33.66667 0.000000 0.000000 39.00000 -6.933333 -12.00000 0.000000 0.000000 1.000000 10.26667 59.26667 0.000000 33.66667 0.000000 0.000000 -39.00000 6.933333 -12.00000 -15.00000 0.000000 0.000000 30.00000 0.000000 0.000000 -16.00000 0.000000 0.000000 24.86667 0.000000 0.000000 4.866667 0.000000 0.000000 9.133333 0.000000 0.000000 
0.000000 39.00000 0.000000 1.000000 0.000000 0.000000 1.000000 0.000000 0.000000 1.000000 0.000000 0.000000 1.000000 0.000000 0.000000 1.000000 0.000000 0.000000 0.000000 0.000000 1.000000 -15.40000 -51.40000 0.000000 -41.00000 0.000000 0.000000 36.00000 -10.40000 -18.00000 0.000000 0.000000 1.000000 15.40000 51.40000 0.000000 41.00000 0.000000 0.000000 -36.00000 10.40000 -18.00000 -15.00000 0.000000 0.000000 30.00000 0.000000 0.000000 -16.00000 0.000000 0.000000 21.80000 0.000000 0.000000 6.800000 0.000000 0.000000 7.200000 0.000000 0.000000 
0.000000 39.00000 0.000000 1.000000 0.000000 0.000000 1.000000 0.000000 0.000000 1.000000 0.000000 0.000000 1.000000 0.000000 0.000000 1.000000 0.000000 0.000000 0.000000 0.000000 1.000000 -20.53333 -43.53333 0.000000 -48.33333 0.000000 0.000000 33.00000 -13.86667 -24.00000 0.000000 0.000000 1.000000 20.53333 43.53333 0.000000 48.33333 0.000000 0.000000 -33.00000 13.86667 -24.00000 -15.00000 0.000000 0.000000 30.00000 0.000000 0.000000 -16.00000 0.000000 0.000000 18.73333 0.000000 0.000000 8.733334 0.000000 0.000000 5.266667 0.000000 0.000000 
